<?xml version="1.0" encoding="utf-8"?>
<!-- Generator: Adobe Illustrator 18.1.1, SVG Export Plug-In . SVG Version: 6.00 Build 0)  -->
<svg version="1.1" id="Слой_1" xmlns="http://www.w3.org/2000/svg" xmlns:xlink="http://www.w3.org/1999/xlink" x="0px" y="0px"
	 width="21px" height="21px" viewBox="0 0 21 21" enable-background="new 0 0 21 21" xml:space="preserve">
<g>
	<path fill="#E5E5E5" d="M16.7,5.8l-0.3-0.2l4.2-4.2c0.3-0.3,0.3-0.8,0-1.1c-0.3-0.3-0.8-0.3-1.1,0L0.3,19.5c-0.3,0.3-0.3,0.8,0,1.1
		c0.1,0.1,0.3,0.2,0.5,0.2c0.2,0,0.4-0.1,0.5-0.2l3.2-3.2l0.3,0.2c1.6,1.3,3.6,2,5.7,2.1c2.8,0,5.3-1.3,7.7-4c0.7-0.8,1.4-1.7,2-2.7
		c0.4-0.7,0.6-1.1,0.7-1.2c0.1-0.2,0.1-0.5,0-0.7C19.8,9.1,18.4,7.3,16.7,5.8z M10.5,18.3c-1.7,0-3.3-0.6-4.6-1.7l-0.3-0.2l2.5-2.5
		l0.2,0.2c0.8,0.8,2,1.1,3.1,0.8c1.2-0.3,2.1-1.3,2.4-2.6c0.3-1.1,0-2.2-0.6-3.1L13,9l2.3-2.3l0.2,0.2c1.5,1.3,2.7,2.8,3.6,4.5
		l0.1,0.2l-0.1,0.2c-0.1,0.2-0.2,0.4-0.4,0.6l-0.1,0.1c-0.5,0.8-1.1,1.6-1.7,2.3C15,17.1,12.8,18.3,10.5,18.3z M12.4,12
		c-0.2,0.7-0.7,1.3-1.4,1.5c-0.6,0.1-1.2,0-1.6-0.4l-0.3-0.2L12,10l0.2,0.4C12.4,10.9,12.5,11.4,12.4,12z"/>
	<path fill="#E5E5E5" d="M2.2,15c0.1,0.2,0.4,0.3,0.6,0.3c0.2,0,0.3-0.1,0.5-0.2c0.3-0.3,0.4-0.7,0.1-1.1c-0.6-0.7-1.1-1.5-1.6-2.4
		l-0.1-0.2l0.1-0.1C1.9,11.2,2,11,2.2,10.7l0.1-0.1C2.7,9.8,3.3,9,3.9,8.3C6,6,8.2,4.8,10.5,4.8c0.6,0,1.1,0.1,1.7,0.2
		c0.4,0.1,0.8-0.2,0.9-0.6c0.1-0.4-0.1-0.8-0.5-0.9c-0.7-0.2-1.3-0.2-2-0.2c-2.8,0-5.4,1.3-7.7,4C2.1,8.1,1.4,9,0.9,10
		c-0.3,0.4-0.5,0.8-0.7,1.2c-0.1,0.2-0.1,0.4,0,0.7C0.7,13,1.4,14,2.2,15z"/>
</g>
<g display="none">
	<g display="inline">
		<g>
			<path fill="#E5E5E5" d="M10.6,8.2c-1.8,0-3.3,1.5-3.3,3.3s1.5,3.3,3.3,3.3s3.3-1.5,3.3-3.3S12.4,8.2,10.6,8.2z M10.6,13.6
				c-1.2,0-2.1-0.9-2.1-2.1s0.9-2.1,2.1-2.1s2.1,0.9,2.1,2.1S11.8,13.6,10.6,13.6z"/>
			<path fill="#E5E5E5" d="M18.1,7.4c-2.3-2.6-4.8-3.9-7.5-3.9C7.9,3.4,5.3,4.7,3,7.4C2.3,8.2,1.7,9.1,1.1,10
				c-0.4,0.7-0.6,1.1-0.7,1.2c-0.1,0.2-0.1,0.3,0,0.5c0.2,0.4,0.4,0.8,0.7,1.2c0.6,0.9,1.2,1.8,1.9,2.7c2.3,2.6,4.8,3.9,7.5,3.9
				c2.7,0,5.3-1.3,7.5-3.9c0.7-0.8,1.4-1.7,1.9-2.7c0.4-0.7,0.6-1.1,0.7-1.2c0.1-0.2,0.1-0.3,0-0.5c-0.1-0.2-0.3-0.6-0.7-1.2
				C19.5,9.1,18.9,8.2,18.1,7.4z M19.4,11.7c-0.6,1.1-1.3,2.2-2.2,3.1c-2.1,2.4-4.3,3.5-6.7,3.5c-2.4,0-4.6-1.2-6.7-3.5
				c-0.7-0.8-1.3-1.6-1.8-2.5c-0.1-0.2-0.3-0.5-0.4-0.6l-0.1-0.2l0.1-0.2c0.6-1.1,1.3-2.2,2.2-3.1C6,5.8,8.2,4.6,10.6,4.6
				c2.4,0,4.6,1.2,6.7,3.5c0.8,1,1.6,2,2.2,3.1l0.1,0.2L19.4,11.7z"/>
		</g>
	</g>
</g>
</svg>
