<?xml version="1.0" encoding="utf-8"?>
<!-- Generator: Adobe Illustrator 18.1.1, SVG Export Plug-In . SVG Version: 6.00 Build 0)  -->
<svg version="1.1" id="Слой_1" xmlns="http://www.w3.org/2000/svg" xmlns:xlink="http://www.w3.org/1999/xlink" x="0px" y="0px"
	 width="167px" height="35px" viewBox="0 0 167 35" enable-background="new 0 0 167 35" xml:space="preserve">
<path fill="#35DEB8" d="M95.6,19.5c-13.8,10.4-32,17.6-48.4,9c15.8,1.8,32.3-1.6,46.4-10.1C95.4,18.3,96.4,18.8,95.6,19.5z"/>
<path fill="#00AEEF" d="M110,16.7c-14,6.5-29.1,20.9-46.2,17.5c16.5-3.4,31-12.5,44.7-18.9C110,15.3,110.7,15.9,110,16.7z"/>
<path d="M16.8,23.4c-0.5,0-1,0-1.5,0c0-3.9,0-7.8,0-11.8c0.5,0,1,0,1.5,0c0.1,0,0.3,0.2,0.4,0.4c1.3,2.2,2.6,4.4,3.9,6.6
	c0.1,0.2,0.2,0.3,0.3,0.5c1.2-2.1,2.4-4.1,3.6-6.2c0.1-0.1,0.1-0.2,0.2-0.3c0.7-1.2,0.8-1.2,2.2-1c0,3.9,0,7.8,0,11.8
	c-0.5,0-1,0-1.5,0c0-3,0-5.9,0-8.9c0,0-0.1,0-0.1,0c-0.1,0.2-0.2,0.4-0.4,0.6c-1.2,2-2.4,4-3.6,6c-0.5,0.8-0.5,0.8-1,0
	c-1.2-2.1-2.4-4.1-3.6-6.2c-0.1-0.1-0.2-0.3-0.4-0.4C16.8,17.5,16.8,20.4,16.8,23.4z"/>
<path d="M78.2,13c-0.3,0.3-0.6,0.7-0.9,1c-1.5-1.2-3.2-1.6-5-1.4c-0.6,0.1-1.1,0.3-1.6,0.5c-0.6,0.3-0.9,0.9-0.8,1.7
	c0.1,0.7,0.6,1,1.1,1.1c0.7,0.2,1.4,0.2,2.2,0.3c1.1,0.1,2.2,0.2,3.3,0.4c1.7,0.4,2.6,1.3,2.7,2.9c0.1,1.4-0.5,2.7-2.1,3.5
	c-2.8,1.3-7.3,0.4-9.3-1.9c0.3-0.3,0.6-0.7,0.9-1c0.6,0.4,1.1,0.8,1.7,1.2c1.8,1,3.7,1.3,5.7,0.6c0.8-0.3,1.5-0.8,1.6-1.7
	c0.1-1.2-0.5-2-1.8-2.2c-1.2-0.2-2.5-0.3-3.7-0.4c-0.6-0.1-1.3-0.2-1.9-0.4c-2-0.7-2.5-3.1-1.1-4.7c0.8-0.8,1.8-1.2,2.8-1.3
	c2.1-0.2,4.1,0.2,5.9,1.3c0.1,0.1,0.2,0.1,0.3,0.2C78.1,12.9,78.2,13,78.2,13z"/>
<path d="M93.5,23.4c-0.7,0-1.3,0-1.8,0c-0.2,0-0.3-0.2-0.5-0.3c-1.5-1.9-2.9-3.8-4.4-5.7c0-0.1-0.1-0.1-0.2-0.2
	c-0.2,0.2-0.4,0.4-0.6,0.5c-0.7,0.6-1.3,1.3-2,1.9c-0.2,0.2-0.3,0.5-0.3,0.7c0,1,0,2,0,3c-0.5,0-1,0-1.5,0c0-3.9,0-7.8,0-11.8
	c0.5,0,1,0,1.5,0c0,2.2,0,4.3,0,6.5c0.5-0.5,0.9-0.9,1.3-1.2c1.6-1.6,3.3-3.2,4.9-4.9c0.4-0.4,0.7-0.5,1.2-0.5c0.3,0,0.7,0,1.2,0
	c-1.6,1.6-3.1,3-4.7,4.5C89.7,18.5,91.6,20.9,93.5,23.4z"/>
<path d="M0.8,11.6c0.5,0,1,0,1.5,0c0,0.2,0,0.4,0,0.6c0,2.2,0,4.5,0,6.7c0,2.3,1.6,3.3,3.2,3.4c0.8,0.1,1.6,0,2.4-0.4
	c1-0.5,1.6-1.3,1.6-2.3c0.1-2.4,0-4.8,0-7.2c0-0.3,0-0.5,0-0.8c0.5,0,1,0,1.6,0c0,0.2,0,0.4,0,0.6c0,2.3,0,4.6,0,6.9
	c0,2.5-1.5,4.2-4,4.6c-1.4,0.2-2.7,0.1-4-0.5c-1.5-0.7-2.3-2-2.4-3.7c-0.1-2.5,0-5.1,0-7.6C0.8,11.8,0.8,11.7,0.8,11.6z"/>
<path d="M66.1,23.4c-0.1,0-0.1,0-0.1,0c-1.5,0.1-1.5,0.1-2.2-1.3c-0.3-0.6-0.6-1.3-0.9-1.9c-0.1-0.1-0.3-0.3-0.4-0.3
	c-1.7,0-3.5,0-5.2,0c-0.2,0-0.4,0.2-0.5,0.3c-0.4,0.9-0.9,1.9-1.3,2.8c-0.1,0.3-0.3,0.4-0.6,0.4c-0.4,0-0.7,0-1.2,0
	c0.1-0.2,0.2-0.4,0.2-0.5c1.7-3.6,3.3-7.3,5-10.9c0.2-0.4,0.4-0.4,0.7-0.5c0.8-0.1,1.1,0.2,1.4,0.9c1.5,3.4,3.1,6.8,4.7,10.2
	C65.9,22.9,66,23.1,66.1,23.4z M59.9,13.3c-0.8,1.8-1.6,3.5-2.4,5.3c1.6,0,3.2,0,4.8,0C61.5,16.8,60.7,15.1,59.9,13.3z"/>
<path d="M42.6,23.4c-1.6,0.1-1.6,0.1-2.3-1.3c-0.3-0.6-0.6-1.3-0.9-1.9c-0.1-0.2-0.3-0.3-0.5-0.3c-1.7,0-3.5,0-5.2,0
	c-0.2,0-0.4,0.2-0.5,0.3C32.8,21.1,32.4,22,32,23c-0.1,0.3-0.3,0.5-0.7,0.5c-0.3,0-0.7,0-1.1,0c0-0.2,0.1-0.3,0.1-0.4
	c1.7-3.7,3.4-7.3,5.1-11c0.1-0.3,0.3-0.5,0.7-0.4c0.1,0,0.2,0,0.4,0c0.5-0.1,0.8,0.2,1,0.6c1.6,3.6,3.3,7.1,4.9,10.7
	C42.4,23.1,42.5,23.2,42.6,23.4z M34,18.6c1.6,0,3.2,0,4.7,0c-0.8-1.8-1.6-3.5-2.4-5.3C35.5,15.2,34.7,16.8,34,18.6z"/>
<path d="M47.4,13c-1.6,0-3.1,0-4.6,0c0-0.5,0-0.9,0-1.3c3.5,0,7.1,0,10.6,0c0,0.4,0,0.9,0,1.3c-1.5,0-3,0-4.5,0c0,3.5,0,7,0,10.5
	c-0.6,0-1,0-1.6,0C47.4,19.9,47.4,16.5,47.4,13z"/>
</svg>
