<?xml version="1.0" encoding="utf-8"?>
<!-- Generator: Adobe Illustrator 24.0.2, SVG Export Plug-In . SVG Version: 6.00 Build 0)  -->
<svg version="1.1" id="Слой_1" xmlns="http://www.w3.org/2000/svg" xmlns:xlink="http://www.w3.org/1999/xlink" x="0px" y="0px"
	 viewBox="0 0 368.5 79.37" style="enable-background:new 0 0 368.5 79.37;" xml:space="preserve">
<style type="text/css">
	.st0{fill:#63BEAA;}
	.st1{fill:#29ABE3;}
	.st2{fill:#FFFFFF;}
</style>
<path class="st0" d="M318.67,28.73c-46.05,34.71-106.79,58.73-161.51,30.03c52.73,6.01,107.79-5.34,154.84-33.7
	C318,24.73,321.34,26.4,318.67,28.73z"/>
<path class="st1" d="M366.72,19.39c-46.72,21.69-97.11,69.74-154.17,58.4C267.61,66.44,316,36.07,361.72,14.72
	C366.72,14.72,369.06,16.72,366.72,19.39z"/>
<path class="st2" d="M55.71,41.75c-1.67,0-3.34,0-5.01,0c0-13.01,0-26.03,0-39.38c1.67,0,3.34,0,5.01,0c0.33,0,1,0.67,1.33,1.33
	c4.34,7.34,8.68,14.68,13.01,22.02c0.33,0.67,0.67,1,1,1.67c4-7.01,8.01-13.68,12.01-20.69c0.33-0.33,0.33-0.67,0.67-1
	c2.34-4,2.67-4,7.34-3.34c0,13.01,0,26.03,0,39.38c-1.67,0-3.34,0-5.01,0c0-10.01,0-19.69,0-29.7h-0.33c-0.33,0.67-0.67,1.33-1.33,2
	c-4,6.67-8.01,13.35-12.01,20.02c-1.67,2.67-1.67,2.67-3.34,0c-4-7.01-8.01-13.68-12.01-20.69c-0.33-0.33-0.67-1-1.33-1.33
	C55.71,22.06,55.71,31.74,55.71,41.75z"/>
<path class="st2" d="M260.61,7.04c-1,1-2,2.34-3,3.34c-5.01-4-10.68-5.34-16.69-4.67c-2,0.33-3.67,1-5.34,1.67c-2,1-3,3-2.67,5.67
	c0.33,2.34,2,3.34,3.67,3.67c2.34,0.67,4.67,0.67,7.34,1c3.67,0.33,7.34,0.67,11.01,1.33c5.67,1.33,8.68,4.34,9.01,9.68
	c0.33,4.67-1.67,9.01-7.01,11.68c-9.34,4.34-24.36,1.33-31.03-6.34c1-1,2-2.34,3-3.34c2,1.33,3.67,2.67,5.67,4
	c6.01,3.34,12.35,4.34,19.02,2c2.67-1,5.01-2.67,5.34-5.67c0.33-4-1.67-6.67-6.01-7.34c-4-0.67-8.34-1-12.35-1.33
	c-2-0.33-4.34-0.67-6.34-1.33c-6.67-2.34-8.34-10.34-3.67-15.68c2.67-2.67,6.01-4,9.34-4.34c7.01-0.67,13.68,0.67,19.69,4.34
	c0.33,0.33,0.67,0.33,1,0.67C260.27,6.71,260.61,7.04,260.61,7.04z"/>
<path class="st2" d="M311.66,41.75c-2.34,0-4.34,0-6.01,0c-0.67,0-1-0.67-1.67-1c-5.01-6.34-9.68-12.68-14.68-19.02
	c0-0.33-0.33-0.33-0.67-0.67c-0.67,0.67-1.33,1.33-2,1.67c-2.34,2-4.34,4.34-6.67,6.34c-0.67,0.67-1,1.67-1,2.34
	c0,3.34,0,6.67,0,10.01c-1.67,0-3.34,0-5.01,0c0-13.01,0-26.03,0-39.38c1.67,0,3.34,0,5.01,0c0,7.34,0,14.35,0,21.69
	c1.67-1.67,3-3,4.34-4c5.34-5.34,11.01-10.68,16.35-16.35c1.33-1.33,2.34-1.67,4-1.67c1,0,2.34,0,4,0
	c-5.34,5.34-10.34,10.01-15.68,15.02C298.98,25.4,305.32,33.4,311.66,41.75z"/>
<path class="st2" d="M2.32,2.37c1.67,0,3.34,0,5.01,0c0,0.67,0,1.33,0,2c0,7.34,0,15.02,0,22.36c0,7.68,5.34,11.01,10.68,11.35
	c2.67,0.33,5.34,0,8.01-1.33c3.34-1.67,5.34-4.34,5.34-7.68c0.33-8.01,0-16.02,0-24.03c0-1,0-1.67,0-2.67c1.67,0,3.34,0,5.34,0
	c0,0.67,0,1.33,0,2c0,7.68,0,15.35,0,23.03c0,8.34-5.01,14.02-13.35,15.35c-4.67,0.67-9.01,0.33-13.35-1.67
	c-5.01-2.34-7.68-6.67-8.01-12.35c-0.33-8.34,0-17.02,0-25.36C2.32,3.04,2.32,2.7,2.32,2.37z"/>
<path class="st2" d="M220.23,41.75c-0.33,0-0.33,0-0.33,0c-5.01,0.33-5.01,0.33-7.34-4.34c-1-2-2-4.34-3-6.34c-0.33-0.33-1-1-1.33-1
	c-5.67,0-11.68,0-17.35,0c-0.67,0-1.33,0.67-1.67,1c-1.33,3-3,6.34-4.34,9.34c-0.33,1-1,1.33-2,1.33c-1.33,0-2.34,0-4,0
	c0.33-0.67,0.67-1.33,0.67-1.67c5.67-12.01,11.01-24.36,16.69-36.37c0.67-1.33,1.33-1.33,2.34-1.67c2.67-0.33,3.67,0.67,4.67,3
	c5.01,11.35,10.34,22.69,15.68,34.04C219.56,40.08,219.89,40.75,220.23,41.75z M199.54,8.04c-2.67,6.01-5.34,11.68-8.01,17.69
	c5.34,0,10.68,0,16.02,0C204.88,19.72,202.21,14.05,199.54,8.04z"/>
<path class="st2" d="M141.81,41.75c-5.34,0.33-5.34,0.33-7.68-4.34c-1-2-2-4.34-3-6.34c-0.33-0.67-1-1-1.67-1
	c-5.67,0-11.68,0-17.35,0c-0.67,0-1.33,0.67-1.67,1c-1.33,3-2.67,6.01-4,9.34c-0.33,1-1,1.67-2.34,1.67c-1,0-2.34,0-3.67,0
	c0-0.67,0.33-1,0.33-1.33c5.67-12.35,11.35-24.36,17.02-36.71c0.33-1,1-1.67,2.34-1.33c0.33,0,0.67,0,1.33,0
	c1.67-0.33,2.67,0.67,3.34,2c5.34,12.01,11.01,23.69,16.35,35.71C141.14,40.75,141.47,41.08,141.81,41.75z M113.11,25.73
	c5.34,0,10.68,0,15.68,0c-2.67-6.01-5.34-11.68-8.01-17.69C118.11,14.38,115.44,19.72,113.11,25.73z"/>
<path class="st2" d="M157.82,7.04c-5.34,0-10.34,0-15.35,0c0-1.67,0-3,0-4.34c11.68,0,23.69,0,35.37,0c0,1.33,0,3,0,4.34
	c-5.01,0-10.01,0-15.02,0c0,11.68,0,23.36,0,35.04c-2,0-3.34,0-5.34,0C157.82,30.07,157.82,18.72,157.82,7.04z"/>
</svg>
