<?xml version="1.0" encoding="utf-8"?>
<!-- Generator: Adobe Illustrator 24.0.2, SVG Export Plug-In . SVG Version: 6.00 Build 0)  -->
<svg version="1.1" id="Слой_1" xmlns="http://www.w3.org/2000/svg" xmlns:xlink="http://www.w3.org/1999/xlink" x="0px" y="0px"
	 viewBox="0 0 26 26" style="enable-background:new 0 0 26 26;" xml:space="preserve">
<style type="text/css">
	.st0{fill:url(#SVGID_1_);}
	.st1{fill:#C8DAEA;}
	.st2{fill:#AAC7D9;}
	.st3{fill:#FFFFFF;}
</style>
<linearGradient id="SVGID_1_" gradientUnits="userSpaceOnUse" x1="0" y1="13" x2="26" y2="13">
	<stop  offset="0" style="stop-color:#2693D1"/>
	<stop  offset="1" style="stop-color:#38B0E4"/>
</linearGradient>
<circle class="st0" cx="13" cy="13" r="13"/>
<g>
	<path class="st1" d="M8.3,13.6l1.5,4.3c0,0,0.2,0.4,0.4,0.4c0.2,0,3.3-3.2,3.3-3.2L17,8.5l-8.6,4L8.3,13.6z"/>
	<g>
		<path class="st2" d="M10.3,14.7L10,17.9c0,0-0.1,1,0.8,0s1.9-1.7,1.9-1.7"/>
	</g>
	<path class="st3" d="M8.4,13.8l-3.2-1c0,0-0.4-0.2-0.3-0.5C5,12.2,5,12.1,5.2,12c0.7-0.5,13-4.9,13-4.9s0.3-0.1,0.6,0
		c0.1,0,0.2,0.1,0.2,0.2c0,0.1,0,0.2,0,0.3c0,0.1,0,0.2,0,0.3c-0.1,1.2-2.3,10.2-2.3,10.2s-0.1,0.5-0.6,0.5c-0.2,0-0.4,0-0.6-0.2
		c-0.9-0.8-4.2-3-4.9-3.5c0,0-0.1-0.1-0.1-0.1c0-0.1,0-0.1,0-0.1s5.7-5,5.8-5.6c0,0,0-0.1-0.1,0c-0.4,0.1-6.9,4.3-7.6,4.7
		C8.5,13.8,8.4,13.8,8.4,13.8"/>
</g>
</svg>
