<?xml version="1.0" encoding="utf-8"?>
<!-- Generator: Adobe Illustrator 24.0.2, SVG Export Plug-In . SVG Version: 6.00 Build 0)  -->
<svg version="1.1" id="Слой_1" xmlns="http://www.w3.org/2000/svg" xmlns:xlink="http://www.w3.org/1999/xlink" x="0px" y="0px"
	 viewBox="0 0 26 26" style="enable-background:new 0 0 26 26;" xml:space="preserve">
<style type="text/css">
	.st0{fill:#4E77A2;}
	.st1{fill-rule:evenodd;clip-rule:evenodd;fill:#FFFFFF;}
</style>
<g>
	<g>
		<circle id="XMLID_11_" class="st0" cx="13" cy="13" r="13"/>
	</g>
	<path class="st1" d="M12.5,18.7h1c0,0,0.3,0,0.4-0.2c0.2-0.2,0.1-0.4,0.1-0.4s0-1.4,0.6-1.6s1.4,1.3,2.3,1.9
		c0.6,0.4,1.1,0.4,1.1,0.4l2.3,0c0,0,1.2-0.1,0.6-1c0-0.1-0.3-0.7-1.7-1.9c-1.4-1.3-1.2-1.1,0.5-3.4c1.1-1.4,1.5-2.2,1.3-2.6
		c0-0.4-0.8-0.3-0.8-0.3h-2.6c0,0-0.2,0-0.3,0c-0.1,0.1-0.2,0.3-0.2,0.3s-0.4,1.1-0.9,2c-1.1,1.9-1.6,2-1.8,1.9
		c-0.4-0.3-0.3-1.1-0.3-1.7c0-1.9,0.3-2.7-0.6-2.9c-0.3-0.1-0.5-0.1-1.2-0.1c-0.9,0-1.7,0-2.1,0.2C10,9.3,9.8,9.5,9.9,9.6
		c0.2,0,0.6,0.1,0.8,0.4c0.2,0.4,0.2,1.2,0.2,1.2s0.2,2.2-0.4,2.5c-0.4,0.2-0.8-0.2-1.8-1.9c-0.5-0.9-0.9-1.9-0.9-1.9
		S7.7,9.5,7.6,9.5C7.4,9.3,7.2,9.3,7.2,9.3H4.8c0,0-0.4,0-0.5,0.2c-0.1,0.1,0,0.4,0,0.4s1.9,4.5,4.1,6.7
		C10.2,18.8,12.5,18.7,12.5,18.7L12.5,18.7z"/>
</g>
</svg>
