<svg width="48" height="48" viewBox="0 0 48 48" fill="none" xmlns="http://www.w3.org/2000/svg">
<mask id="mask0" mask-type="alpha" maskUnits="userSpaceOnUse" x="0" y="0" width="48" height="48">
<path d="M24 48C37.2548 48 48 37.2548 48 24C48 10.7452 37.2548 0 24 0C10.7452 0 0 10.7452 0 24C0 37.2548 10.7452 48 24 48Z" fill="white"/>
</mask>
<g mask="url(#mask0)">
<path d="M24 48C37.2548 48 48 37.2548 48 24C48 10.7452 37.2548 0 24 0C10.7452 0 0 10.7452 0 24C0 37.2548 10.7452 48 24 48Z" fill="#4FCC02"/>
</g>
<path fill-rule="evenodd" clip-rule="evenodd" d="M24 48C37.2548 48 48 37.2548 48 24C48 10.7452 37.2548 0 24 0C10.7452 0 0 10.7452 0 24C0 37.2548 10.7452 48 24 48Z" fill="#FF6163"/>
<path fill-rule="evenodd" clip-rule="evenodd" d="M24 48C37.2548 48 48 37.2548 48 24C48 10.7452 37.2548 0 24 0C10.7452 0 0 10.7452 0 24C0 37.2548 10.7452 48 24 48Z" fill="#FF6163"/>
<g opacity="0.7">
<path fill-rule="evenodd" clip-rule="evenodd" d="M19.3233 24.924L16.6716 27.5756L11.9982 22.9022L7.32481 27.5756L4.67316 24.924L9.34657 20.2505L4.67163 15.5756L7.32328 12.924L11.9982 17.5989L16.6732 12.924L19.3248 15.5756L14.6499 20.2505L19.3233 24.924Z" fill="white"/>
</g>
<path fill-rule="evenodd" clip-rule="evenodd" d="M20.8052 34.5498C20.8052 34.2383 20.8669 33.9214 20.9905 33.5991C21.114 33.2769 21.3101 32.9922 21.5786 32.7451L28.5073 25.8003C29.7642 24.5434 30.6611 23.4424 31.1982 22.4971C31.7998 21.4551 32.1006 20.3648 32.1006 19.2261C32.1006 18.1948 31.832 17.4053 31.2949 16.8574C30.7578 16.3096 30.0005 16.0356 29.0229 16.0356C28.1958 16.0356 27.4814 16.2666 26.8799 16.7285C26.2783 17.1797 25.8809 17.749 25.6875 18.4365C25.5264 18.877 25.325 19.1938 25.0833 19.3872C24.8416 19.5806 24.522 19.6772 24.1245 19.6772C23.9419 19.6772 23.7378 19.6611 23.5122 19.6289L21.1597 19.21C21.3208 18.0928 21.6377 17.1018 22.1104 16.2371C22.583 15.3723 23.1792 14.6499 23.8989 14.0698C24.5972 13.5005 25.4028 13.0735 26.3159 12.7888C27.229 12.5041 28.2173 12.3618 29.2808 12.3618C30.3657 12.3618 31.3647 12.5229 32.2778 12.8452C33.1909 13.1675 33.9751 13.624 34.6304 14.2148C35.2856 14.8057 35.7878 15.5173 36.137 16.3499C36.4861 17.1824 36.6606 18.0928 36.6606 19.0811C36.6606 19.9082 36.5425 20.6843 36.3062 21.4094C36.0698 22.1345 35.7314 22.8462 35.291 23.5444C34.9043 24.146 34.4558 24.7368 33.9456 25.3169C33.4353 25.897 32.7988 26.5791 32.0361 27.3633L27.0732 32.439C28.2441 32.0952 29.2915 31.9233 30.2153 31.9233H35.4683C35.9517 31.9233 36.3303 32.0549 36.6042 32.3181C36.8782 32.5813 37.0151 32.9385 37.0151 33.3896V36H20.8052V34.5498Z" fill="white"/>
</svg>
